<?xml version="1.0" standalone="no"?><!DOCTYPE svg PUBLIC "-//W3C//DTD SVG 1.1//EN" "http://www.w3.org/Graphics/SVG/1.1/DTD/svg11.dtd"><svg t="1717664008466" class="icon" viewBox="0 0 1024 1024" version="1.1" xmlns="http://www.w3.org/2000/svg" p-id="1549" width="128" height="128" xmlns:xlink="http://www.w3.org/1999/xlink"><path d="M512 0C229.696 0 0 229.696 0 512s229.696 512 512 512 512-229.696 512-512S794.304 0 512 0z m0 934.4c-232.896 0-422.4-189.504-422.4-422.4s189.504-422.4 422.4-422.4 422.4 189.504 422.4 422.4-189.504 422.4-422.4 422.4z" p-id="1550" fill="#333333"></path><path d="M636.416 486.912c32.704-32.128 52.992-76.672 52.992-125.952 0-97.536-79.616-176.832-177.408-176.832-97.856 0-177.408 79.36-177.408 176.832 0 49.28 20.352 93.824 52.992 125.952-89.6 45.376-151.168 138.048-151.168 244.864 0 24.768 20.032 44.8 44.8 44.8s44.8-20.032 44.8-44.8c0-101.952 83.392-184.96 185.984-184.96 102.528 0 185.984 82.944 185.984 184.96 0 24.768 20.032 44.8 44.8 44.8s44.8-20.032 44.8-44.8c0-106.816-61.568-199.488-151.168-244.864zM512 273.664c48.448 0 87.808 39.168 87.808 87.232 0 48.128-39.424 87.232-87.808 87.232-48.448 0-87.808-39.168-87.808-87.232 0-48.064 39.36-87.232 87.808-87.232z" p-id="1551" fill="#333333"></path></svg>